<?xml version="1.0" encoding="UTF-8"?>
<svg id="Layer_1" data-name="Layer 1" xmlns="http://www.w3.org/2000/svg" viewBox="0 0 1053.86 1054.67">
  <defs>
    <style>
      .cls-1 {
        fill: #a0001c;
      }

      .cls-2 {
        fill: #0bd2d1;
      }

      .cls-3 {
        fill: #004e89;
      }

      .cls-4 {
        fill: #c00021;
      }

      .cls-5 {
        stroke-miterlimit: 10;
        stroke-width: 7px;
      }

      .cls-5, .cls-6 {
        fill: none;
        stroke: #000;
      }

      .cls-7 {
        fill: #00043a;
      }

      .cls-8 {
        fill: #fff;
      }

      .cls-8, .cls-6 {
        font-family: HelveticaRounded-Bold, 'Helvetica Rounded';
        font-size: 404.87px;
        font-weight: 700;
        letter-spacing: -.05em;
      }

      .cls-6 {
        stroke-width: 52.36px;
      }
    </style>
  </defs>
  <polygon class="cls-7" points="685.6 867.13 685.6 1000.95 804.97 946.26 804.97 812.21 685.6 867.13"/>
  <polygon class="cls-3" points="804.97 812.21 804.97 946.26 895.93 904.6 895.93 770.37 804.97 812.21"/>
  <polygon class="cls-2" points="110.48 704.54 274.42 778.97 274.42 499.05 112.97 432.64 110.48 704.54"/>
  <polygon class="cls-3" points="112.97 432.64 274.42 515.57 274.42 372.76 114.3 288.12 112.97 432.64"/>
  <polygon class="cls-3" points="377.69 175.35 292.46 211.84 377.69 252.77 377.69 175.35"/>
  <polygon class="cls-7" points="292.46 211.84 114.3 288.12 274.42 372.76 377.69 328 377.69 252.77 292.46 211.84"/>
  <polygon class="cls-2" points="377.69 175.35 377.69 252.77 377.69 328 576.75 241.7 576.75 90.13 377.69 175.35"/>
  <polygon class="cls-3" points="576.75 90.13 576.75 241.7 805.92 343.06 805.92 190.98 576.75 90.13"/>
  <polygon class="cls-2" points="1050.36 298.56 805.92 190.98 805.92 343.06 895.93 382.87 1050.36 298.56"/>
  <polygon class="cls-2" points="895.93 382.87 895.93 770.37 895.93 770.37 895.93 904.6 1050.36 833.85 1050.36 298.56 895.93 382.87"/>
  <polygon class="cls-7" points="109.57 832.9 474.77 1003.25 473.51 870.63 110.48 704.54 109.57 832.9"/>
  <polygon class="cls-4" points="473.51 870.63 474.77 1003.25 576.75 1050.81 576.75 917.21 473.51 870.63"/>
  <polygon class="cls-3" points="576.75 917.21 576.75 1050.81 685.6 1000.95 685.6 867.13 576.75 917.21"/>
  <polygon points="576.75 241.7 274.42 372.76 274.42 778.96 576.75 917.21 895.93 770.37 895.93 382.87 576.75 241.7"/>
  <g id="middle">
    <polygon class="cls-3" points="576.75 709.79 576.75 918.78 786.71 820.66 576.75 709.79"/>
    <polygon class="cls-1" points="370.88 822.68 576.75 918.78 576.75 709.79 370.88 822.68"/>
    <polygon id="top" class="cls-4" points="758.4 322.65 569.38 407.77 386.21 324.4 576.75 241.7 758.4 322.65"/>
  </g>
  <g id="outlines">
    <line class="cls-5" x1="114.3" y1="288.12" x2="274.42" y2="372.76"/>
    <line class="cls-5" x1="895.93" y1="382.87" x2="1050.36" y2="298.56"/>
    <line class="cls-5" x1="576.75" y1="241.7" x2="576.75" y2="90.13"/>
    <polyline class="cls-5" points="370.88 822.68 576.75 709.79 786.71 820.66"/>
    <line class="cls-5" x1="576.75" y1="918.78" x2="576.75" y2="709.79"/>
    <path id="outlines-2" data-name="outlines" class="cls-5" d="m576.75,90.13L114.3,288.12l-4.73,544.78,467.18,217.91,473.61-216.96V298.56l-473.61-208.43Zm319.18,680.24l-319.18,148.41-302.32-139.82v-406.2l302.32-131.06,319.18,141.16v387.5Z"/>
    <line class="cls-5" x1="576.75" y1="918.78" x2="576.75" y2="1050.81"/>
    <polyline class="cls-5" points="758.4 322.65 569.38 407.77 386.21 324.4"/>
  </g>
  <g id="SqM_text" data-name="SqM text">
    <text class="cls-8" transform="translate(166.66 711.78)"><tspan x="0" y="0">SqM</tspan></text>
    <text class="cls-6" transform="translate(166.66 711.78)"><tspan x="0" y="0">SqM</tspan></text>
    <text class="cls-8" transform="translate(166.66 711.78)"><tspan x="0" y="0">SqM</tspan></text>
  </g>
</svg>